# xmcd
#
# Track frame offsets: 
#        300
#        15797
#        29902
#        36867
#        53537
#        79676
#        96133
#        114668
#        132051
#        146009
#        158203
#        171180
#        184890
#        220554
#        239429
#        256246
#
# Disc length: 3538 seconds
#
# Revision: 0
# Processed by: cddbd v1.5.2PL0 Copyright (c) Steve Scherf et al.
# Submitted via: ExactAudioCopy v0.99pb5
#
DISCID=d20dce10
DTITLE=The Blues Brothers - Everybody Needs
DYEAR=1988
DGENRE=Contemporary Blues
TTITLE0=Everybody Needs Somebody To Love
TTITLE1=Gimme Some Lovin'
TTITLE2=I Can't Turn You Loose
TTITLE3=She Caught The Katy
TTITLE4=Green Onion
TTITLE5=Who's Making Love
TTITLE6="B" Movie Box Car Blues
TTITLE7=Peter Gunn Theme
TTITLE8=Soul Man
TTITLE9=Theme From Rawhide
TTITLE10=Shake Your Tailfeather
TTITLE11=Do You Love Me Mother Popcorn
TTITLE12=Sweet Home Chicago
TTITLE13=Going Back To Miami
TTITLE14=Flip Flop and Fly
TTITLE15=Soul Finger Funky Broadway
EXTD=
EXTT0=
EXTT1=
EXTT2=
EXTT3=
EXTT4=
EXTT5=
EXTT6=
EXTT7=
EXTT8=
EXTT9=
EXTT10=
EXTT11=
EXTT12=
EXTT13=
EXTT14=
EXTT15=
PLAYORDER=
